<svg xmlns="http://www.w3.org/2000/svg" width="15" height="15" viewBox="0 0 15 15" fill="none">
  <path d="M10.6251 5.73124C10.508 5.61484 10.3496 5.5495 10.1844 5.5495C10.0193 5.5495 9.86091 5.61484 9.74381 5.73124L7.50006 7.94374L5.28756 5.73124C5.17046 5.61484 5.01205 5.5495 4.84693 5.5495C4.68182 5.5495 4.52341 5.61484 4.40631 5.73124C4.34773 5.78935 4.30123 5.85847 4.2695 5.93463C4.23777 6.0108 4.22144 6.09249 4.22144 6.17499C4.22144 6.2575 4.23777 6.33919 4.2695 6.41536C4.30123 6.49152 4.34773 6.56064 4.40631 6.61874L7.05631 9.26874C7.11441 9.32732 7.18354 9.37382 7.2597 9.40555C7.33586 9.43728 7.41755 9.45362 7.50006 9.45362C7.58257 9.45362 7.66426 9.43728 7.74042 9.40555C7.81658 9.37382 7.88571 9.32732 7.94381 9.26874L10.6251 6.61874C10.6836 6.56064 10.7301 6.49152 10.7619 6.41536C10.7936 6.33919 10.8099 6.2575 10.8099 6.17499C10.8099 6.09249 10.7936 6.0108 10.7619 5.93463C10.7301 5.85847 10.6836 5.78935 10.6251 5.73124Z" fill="#222222"/>
</svg>
