<svg width="30" height="31" viewBox="0 0 30 31" fill="none" xmlns="http://www.w3.org/2000/svg">
<path d="M28.1248 18.417C27.7381 18.417 27.3671 18.5706 27.0936 18.8441C26.8201 19.1176 26.6665 19.4886 26.6665 19.8753V25.7087C26.6665 26.0954 26.5129 26.4664 26.2394 26.7399C25.9659 27.0133 25.5949 27.167 25.2082 27.167H4.7915C4.40473 27.167 4.0338 27.0133 3.76031 26.7399C3.48682 26.4664 3.33317 26.0954 3.33317 25.7087V19.8753C3.33317 19.4886 3.17953 19.1176 2.90603 18.8441C2.63254 18.5706 2.26161 18.417 1.87484 18.417C1.48806 18.417 1.11713 18.5706 0.84364 18.8441C0.570149 19.1176 0.416504 19.4886 0.416504 19.8753V25.7087C0.416504 26.869 0.87744 27.9818 1.69791 28.8022C2.51838 29.6227 3.63118 30.0837 4.7915 30.0837H25.2082C26.3685 30.0837 27.4813 29.6227 28.3018 28.8022C29.1222 27.9818 29.5832 26.869 29.5832 25.7087V19.8753C29.5832 19.4886 29.4295 19.1176 29.156 18.8441C28.8825 18.5706 28.5116 18.417 28.1248 18.417ZM13.9644 20.9107C14.1031 21.0435 14.2667 21.1476 14.4457 21.217C14.6202 21.2941 14.809 21.334 14.9998 21.334C15.1907 21.334 15.3794 21.2941 15.554 21.217C15.733 21.1476 15.8966 21.0435 16.0353 20.9107L21.8686 15.0774C22.1432 14.8028 22.2975 14.4303 22.2975 14.042C22.2975 13.6536 22.1432 13.2812 21.8686 13.0066C21.594 12.732 21.2215 12.5777 20.8332 12.5777C20.4448 12.5777 20.0724 12.732 19.7978 13.0066L16.4582 16.3607V2.37533C16.4582 1.98855 16.3045 1.61762 16.031 1.34413C15.7575 1.07064 15.3866 0.916992 14.9998 0.916992C14.6131 0.916992 14.2421 1.07064 13.9686 1.34413C13.6951 1.61762 13.5415 1.98855 13.5415 2.37533V16.3607L10.2019 13.0066C10.0659 12.8706 9.90452 12.7627 9.72687 12.6892C9.54921 12.6156 9.3588 12.5777 9.1665 12.5777C8.97421 12.5777 8.7838 12.6156 8.60614 12.6892C8.42848 12.7627 8.26706 12.8706 8.13109 13.0066C7.99511 13.1425 7.88725 13.304 7.81367 13.4816C7.74008 13.6593 7.7022 13.8497 7.7022 14.042C7.7022 14.2343 7.74008 14.4247 7.81367 14.6024C7.88725 14.78 7.99511 14.9414 8.13109 15.0774L13.9644 20.9107Z" fill="#828282"/>
</svg>
