<svg width="14" height="15" viewBox="0 0 14 15" fill="none" xmlns="http://www.w3.org/2000/svg">
<path d="M13.6668 4.32666C13.6673 4.23893 13.6505 4.15195 13.6174 4.07073C13.5842 3.9895 13.5353 3.91563 13.4735 3.85333L10.6468 1.02667C10.5845 0.964877 10.5107 0.915994 10.4294 0.882818C10.3482 0.849641 10.2612 0.832824 10.1735 0.833332C10.0858 0.832824 9.99879 0.849641 9.91757 0.882818C9.83634 0.915994 9.76247 0.964877 9.70017 1.02667L7.81351 2.91333L0.526841 10.2C0.465053 10.2623 0.416169 10.3362 0.382993 10.4174C0.349817 10.4986 0.333 10.5856 0.333507 10.6733V13.5C0.333507 13.6768 0.403745 13.8464 0.528769 13.9714C0.653794 14.0964 0.823363 14.1667 1.00017 14.1667H3.82684C3.92013 14.1717 4.01344 14.1572 4.10072 14.1238C4.188 14.0905 4.26731 14.0393 4.33351 13.9733L11.5802 6.68667L13.4735 4.83333C13.5344 4.76872 13.5839 4.69435 13.6202 4.61333C13.6266 4.56019 13.6266 4.50647 13.6202 4.45333C13.6233 4.4223 13.6233 4.39103 13.6202 4.36L13.6668 4.32666ZM3.55351 12.8333H1.66684V10.9467L8.28684 4.32666L10.1735 6.21333L3.55351 12.8333ZM11.1135 5.27333L9.22684 3.38667L10.1735 2.44667L12.0535 4.32666L11.1135 5.27333Z" fill="#828282"/>
</svg>
