<svg width="21" height="19" viewBox="0 0 21 19" fill="none" xmlns="http://www.w3.org/2000/svg">
<path d="M19 2.20834C17.8892 1.10907 16.4222 0.442995 14.8635 0.330298C13.3049 0.217601 11.7573 0.665706 10.5 1.59375C9.1746 0.60796 7.52495 0.160954 5.88321 0.342752C4.24147 0.52455 2.72959 1.32165 1.65202 2.57353C0.574448 3.82541 0.0112347 5.43909 0.075796 7.0896C0.140357 8.74012 0.827897 10.3049 1.99996 11.4688L8.24996 17.7708C8.8359 18.356 9.63017 18.6848 10.4583 18.6848C11.2864 18.6848 12.0807 18.356 12.6666 17.7708L18.9166 11.4688C19.5322 10.8673 20.0228 10.1502 20.3603 9.35858C20.6978 8.56695 20.8756 7.71641 20.8833 6.85587C20.8911 5.99532 20.7287 5.14173 20.4054 4.34415C20.0822 3.54657 19.6046 2.82073 19 2.20834ZM17.5312 9.97917L11.2812 16.2292C11.1844 16.3268 11.0692 16.4043 10.9422 16.4572C10.8153 16.5101 10.6791 16.5373 10.5416 16.5373C10.4041 16.5373 10.268 16.5101 10.141 16.4572C10.0141 16.4043 9.89888 16.3268 9.80205 16.2292L3.55204 9.97917C2.73513 9.14411 2.27768 8.02236 2.27768 6.85417C2.27768 5.68598 2.73513 4.56423 3.55204 3.72917C4.3845 2.90728 5.50723 2.44643 6.67704 2.44643C7.84686 2.44643 8.96959 2.90728 9.80205 3.72917C9.89888 3.8268 10.0141 3.9043 10.141 3.95718C10.268 4.01007 10.4041 4.03729 10.5416 4.03729C10.6791 4.03729 10.8153 4.01007 10.9422 3.95718C11.0692 3.9043 11.1844 3.8268 11.2812 3.72917C12.1362 3.04885 13.2116 2.70701 14.3025 2.76885C15.3934 2.83069 16.4233 3.29189 17.1959 4.06449C17.9685 4.83708 18.4297 5.86702 18.4915 6.95788C18.5534 8.04874 18.2115 9.12421 17.5312 9.97917Z" fill="#4F4F4F"/>
</svg>
