<svg width="14" height="18" viewBox="0 0 14 18" fill="none" xmlns="http://www.w3.org/2000/svg">
<path d="M6.99992 0.666687C5.23181 0.666687 3.53612 1.36907 2.28587 2.61931C1.03563 3.86955 0.333252 5.56524 0.333252 7.33335C0.333252 11.8334 6.20825 16.9167 6.45825 17.1334C6.6092 17.2625 6.80129 17.3334 6.99992 17.3334C7.19855 17.3334 7.39064 17.2625 7.54158 17.1334C7.83325 16.9167 13.6666 11.8334 13.6666 7.33335C13.6666 5.56524 12.9642 3.86955 11.714 2.61931C10.4637 1.36907 8.76803 0.666687 6.99992 0.666687ZM6.99992 15.375C5.22492 13.7084 1.99992 10.1167 1.99992 7.33335C1.99992 6.00727 2.5267 4.7355 3.46438 3.79782C4.40207 2.86014 5.67384 2.33335 6.99992 2.33335C8.326 2.33335 9.59777 2.86014 10.5355 3.79782C11.4731 4.7355 11.9999 6.00727 11.9999 7.33335C11.9999 10.1167 8.77492 13.7167 6.99992 15.375ZM6.99992 4.00002C6.34065 4.00002 5.69618 4.19552 5.14802 4.56179C4.59985 4.92806 4.17261 5.44866 3.92032 6.05774C3.66803 6.66683 3.60202 7.33705 3.73063 7.98365C3.85925 8.63026 4.17672 9.2242 4.6429 9.69038C5.10907 10.1566 5.70301 10.474 6.34962 10.6026C6.99622 10.7313 7.66644 10.6652 8.27553 10.413C8.88462 10.1607 9.40521 9.73342 9.77148 9.18525C10.1378 8.63709 10.3333 7.99263 10.3333 7.33335C10.3333 6.4493 9.98206 5.60145 9.35694 4.97633C8.73182 4.35121 7.88397 4.00002 6.99992 4.00002ZM6.99992 9.00002C6.67028 9.00002 6.34805 8.90227 6.07397 8.71914C5.79989 8.536 5.58627 8.2757 5.46012 7.97116C5.33397 7.66662 5.30097 7.33151 5.36528 7.0082C5.42958 6.6849 5.58832 6.38793 5.82141 6.15484C6.05449 5.92176 6.35147 5.76302 6.67477 5.69871C6.99807 5.6344 7.33318 5.66741 7.63772 5.79355C7.94227 5.9197 8.20257 6.13332 8.3857 6.4074C8.56884 6.68149 8.66658 7.00372 8.66658 7.33335C8.66658 7.77538 8.49099 8.1993 8.17843 8.51187C7.86587 8.82443 7.44195 9.00002 6.99992 9.00002Z" fill="#828282"/>
</svg>
