<svg width="18" height="16" viewBox="0 0 18 16" fill="none" xmlns="http://www.w3.org/2000/svg">
<path d="M16.7668 2.20834L11.7668 0.541672H11.7084C11.6696 0.537773 11.6305 0.537773 11.5918 0.541672H11.4001H11.2918H11.2334L6.50008 2.16667L1.76675 0.541672C1.64143 0.500348 1.50809 0.489376 1.3777 0.509659C1.24731 0.529942 1.1236 0.5809 1.01675 0.658338C0.90905 0.735019 0.821138 0.836224 0.76028 0.953594C0.699421 1.07096 0.667362 1.20113 0.666751 1.33334V13C0.6663 13.1747 0.720767 13.3451 0.822452 13.4872C0.924138 13.6293 1.0679 13.7358 1.23342 13.7917L6.23342 15.4583C6.40129 15.5131 6.58221 15.5131 6.75008 15.4583L11.5001 13.875L16.2334 15.5C16.3219 15.512 16.4116 15.512 16.5001 15.5C16.6743 15.5025 16.8444 15.4467 16.9834 15.3417C17.0911 15.265 17.179 15.1638 17.2399 15.0464C17.3007 14.929 17.3328 14.7989 17.3334 14.6667V3.00001C17.3339 2.8253 17.2794 2.65488 17.1777 2.51281C17.076 2.37075 16.9323 2.26424 16.7668 2.20834ZM5.66675 13.5083L2.33342 12.4V2.49167L5.66675 3.6V13.5083ZM10.6668 12.4L7.33342 13.5083V3.6L10.6668 2.49167V12.4ZM15.6668 13.5083L12.3334 12.4V2.49167L15.6668 3.6V13.5083Z" fill="#828282"/>
</svg>
