<svg width="21" height="21" viewBox="0 0 21 21" fill="none" xmlns="http://www.w3.org/2000/svg">
<path d="M10.5002 0.0833282C9.13229 0.0833282 7.77775 0.352763 6.51394 0.87625C5.25013 1.39974 4.10181 2.16702 3.13453 3.1343C1.18103 5.0878 0.08356 7.73732 0.08356 10.5C0.0744536 12.9053 0.907302 15.2381 2.43773 17.0937L0.354393 19.1771C0.209854 19.3236 0.111941 19.5096 0.07301 19.7116C0.0340786 19.9137 0.0558731 20.1228 0.135643 20.3125C0.222162 20.4999 0.362418 20.6574 0.538609 20.765C0.714799 20.8726 0.918978 20.9253 1.12523 20.9167H10.5002C13.2629 20.9167 15.9124 19.8192 17.8659 17.8657C19.8194 15.9122 20.9169 13.2627 20.9169 10.5C20.9169 7.73732 19.8194 5.0878 17.8659 3.1343C15.9124 1.1808 13.2629 0.0833282 10.5002 0.0833282ZM10.5002 18.8333H3.63564L4.60439 17.8646C4.7984 17.6694 4.9073 17.4054 4.9073 17.1302C4.9073 16.855 4.7984 16.591 4.60439 16.3958C3.24042 15.0334 2.39103 13.2401 2.20095 11.3217C2.01086 9.40317 2.49183 7.47813 3.56192 5.8745C4.63201 4.27087 6.22501 3.08787 8.06951 2.52705C9.91402 1.96623 11.8959 2.06229 13.6775 2.79886C15.4592 3.53543 16.9303 4.86695 17.8403 6.56655C18.7503 8.26615 19.0428 10.2287 18.6681 12.1198C18.2933 14.0109 17.2745 15.7136 15.7852 16.9377C14.2958 18.1619 12.4281 18.8318 10.5002 18.8333Z" fill="#4F4F4F"/>
</svg>
