<svg width="16" height="15" viewBox="0 0 16 15" fill="none" xmlns="http://www.w3.org/2000/svg">
<path d="M8.00014 6.75C7.80123 6.75 7.61047 6.82902 7.46981 6.96967C7.32916 7.11032 7.25014 7.30109 7.25014 7.5V9.75C7.25014 9.94891 7.32916 10.1397 7.46981 10.2803C7.61047 10.421 7.80123 10.5 8.00014 10.5C8.19906 10.5 8.38982 10.421 8.53047 10.2803C8.67113 10.1397 8.75014 9.94891 8.75014 9.75V7.5C8.75014 7.30109 8.67113 7.11032 8.53047 6.96967C8.38982 6.82902 8.19906 6.75 8.00014 6.75ZM8.00014 4.5C7.85181 4.5 7.7068 4.54399 7.58347 4.6264C7.46013 4.70881 7.364 4.82594 7.30723 4.96299C7.25047 5.10003 7.23562 5.25083 7.26455 5.39632C7.29349 5.5418 7.36492 5.67544 7.46981 5.78033C7.5747 5.88522 7.70834 5.95665 7.85383 5.98559C7.99931 6.01453 8.15011 5.99968 8.28716 5.94291C8.4242 5.88614 8.54134 5.79001 8.62375 5.66668C8.70616 5.54334 8.75014 5.39834 8.75014 5.25C8.75014 5.05109 8.67113 4.86032 8.53047 4.71967C8.38982 4.57902 8.19906 4.5 8.00014 4.5ZM8.00014 0C7.01523 0 6.03996 0.193993 5.13002 0.570904C4.22008 0.947814 3.39328 1.50026 2.69684 2.1967C1.29032 3.60322 0.500144 5.51088 0.500144 7.5C0.493587 9.23185 1.09324 10.9114 2.19514 12.2475L0.695144 13.7475C0.591075 13.853 0.520578 13.9869 0.492548 14.1324C0.464517 14.2779 0.480209 14.4284 0.537644 14.565C0.599937 14.6999 0.700922 14.8133 0.827779 14.8908C0.954636 14.9682 1.10164 15.0063 1.25014 15H8.00014C9.98927 15 11.8969 14.2098 13.3034 12.8033C14.71 11.3968 15.5001 9.48912 15.5001 7.5C15.5001 5.51088 14.71 3.60322 13.3034 2.1967C11.8969 0.790176 9.98927 0 8.00014 0ZM8.00014 13.5H3.05764L3.75514 12.8025C3.82601 12.733 3.88239 12.6502 3.92101 12.5588C3.95963 12.4674 3.97973 12.3692 3.98014 12.27C3.97733 12.0722 3.89645 11.8835 3.75514 11.745C2.77308 10.764 2.16152 9.4729 2.02466 8.09159C1.8878 6.71029 2.2341 5.32425 3.00456 4.16964C3.77503 3.01503 4.92199 2.16327 6.25003 1.75948C7.57807 1.35569 9.00504 1.42485 10.2878 1.95519C11.5706 2.48552 12.6298 3.44421 13.285 4.66792C13.9402 5.89163 14.1508 7.30466 13.881 8.66625C13.6112 10.0279 12.8776 11.2538 11.8053 12.1352C10.733 13.0166 9.38822 13.4989 8.00014 13.5Z" fill="#222222"/>
</svg>
