<svg width="14" height="15" viewBox="0 0 14 15" fill="none" xmlns="http://www.w3.org/2000/svg">
<path d="M13.0002 0.833374H1.00016C0.823352 0.833374 0.653782 0.903612 0.528758 1.02864C0.403734 1.15366 0.333496 1.32323 0.333496 1.50004V13.5C0.333496 13.6769 0.403734 13.8464 0.528758 13.9714C0.653782 14.0965 0.823352 14.1667 1.00016 14.1667H13.0002C13.177 14.1667 13.3465 14.0965 13.4716 13.9714C13.5966 13.8464 13.6668 13.6769 13.6668 13.5V1.50004C13.6668 1.32323 13.5966 1.15366 13.4716 1.02864C13.3465 0.903612 13.177 0.833374 13.0002 0.833374ZM4.3335 12.8334H1.66683V2.16671H4.3335V12.8334ZM12.3335 12.8334H5.66683V8.16671H12.3335V12.8334ZM12.3335 6.83337H5.66683V2.16671H12.3335V6.83337Z" fill="#222222"/>
</svg>
