<svg width="21" height="22" viewBox="0 0 21 22" fill="none" xmlns="http://www.w3.org/2000/svg">
<path d="M18.25 12.0417C18.0209 12.0417 17.7813 11.9688 17.5521 11.9167C17.088 11.8144 16.632 11.6787 16.1875 11.5104C15.7043 11.3346 15.1731 11.3438 14.6962 11.5361C14.2193 11.7284 13.8303 12.0903 13.6042 12.5521L13.375 13.0209C12.3605 12.4565 11.4282 11.7555 10.6042 10.9375C9.78626 10.1136 9.08528 9.18127 8.52088 8.16669L8.95838 7.87503C9.42022 7.6489 9.78211 7.25995 9.97441 6.78304C10.1667 6.30612 10.1758 5.77493 10 5.29169C9.83465 4.8463 9.69894 4.39044 9.59379 3.92711C9.54171 3.69794 9.50004 3.45836 9.46879 3.21878C9.3423 2.48505 8.95799 1.82059 8.38507 1.34507C7.81215 0.869543 7.08827 0.614201 6.34379 0.625025H3.21879C2.76987 0.62081 2.3253 0.713373 1.91537 0.896411C1.50543 1.07945 1.13974 1.34867 0.843201 1.68574C0.546659 2.0228 0.326226 2.41981 0.196906 2.84973C0.0675872 3.27964 0.0324183 3.73238 0.093794 4.17711C0.64873 8.54105 2.64174 12.5957 5.75801 15.7007C8.87429 18.8056 12.9362 20.7839 17.3021 21.3229H17.698C18.4661 21.3241 19.2077 21.0422 19.7813 20.5313C20.1108 20.2365 20.3741 19.8752 20.5537 19.4712C20.7332 19.0672 20.825 18.6296 20.823 18.1875V15.0625C20.8102 14.339 20.5467 13.6423 20.0775 13.0913C19.6082 12.5404 18.9624 12.1694 18.25 12.0417ZM18.7709 18.2917C18.7707 18.4396 18.739 18.5858 18.6779 18.7205C18.6169 18.8552 18.5278 18.9753 18.4167 19.0729C18.3007 19.174 18.1646 19.2494 18.0174 19.2943C17.8702 19.3392 17.7152 19.3525 17.5625 19.3334C13.6614 18.8332 10.0378 17.0484 7.26329 14.2607C4.48879 11.473 2.7213 7.841 2.23963 3.93753C2.22305 3.78494 2.23758 3.63058 2.28234 3.48377C2.3271 3.33695 2.40116 3.20074 2.50004 3.08336C2.59766 2.97225 2.71782 2.88319 2.85252 2.82213C2.98723 2.76106 3.13339 2.72938 3.28129 2.72919H6.40629C6.64853 2.7238 6.88507 2.80303 7.07519 2.95322C7.26532 3.10342 7.39714 3.3152 7.44796 3.55211C7.48963 3.83683 7.54171 4.11808 7.60421 4.39586C7.72454 4.94497 7.88469 5.48459 8.08338 6.01044L6.62504 6.68753C6.50035 6.74474 6.38819 6.82601 6.295 6.92669C6.20181 7.02736 6.12942 7.14546 6.08199 7.27419C6.03457 7.40292 6.01303 7.53975 6.01864 7.67682C6.02424 7.81389 6.05686 7.94851 6.11463 8.07294C7.61379 11.2841 10.1951 13.8654 13.4063 15.3646C13.6599 15.4688 13.9444 15.4688 14.198 15.3646C14.3279 15.3181 14.4473 15.2463 14.5492 15.1533C14.6511 15.0604 14.7335 14.9481 14.7917 14.8229L15.4375 13.3646C15.976 13.5572 16.5257 13.7172 17.0834 13.8438C17.3612 13.9063 17.6424 13.9584 17.9271 14C18.164 14.0508 18.3758 14.1827 18.526 14.3728C18.6762 14.5629 18.7554 14.7995 18.75 15.0417L18.7709 18.2917Z" fill="#222222"/>
</svg>
