<svg width="12" height="15" viewBox="0 0 12 15" fill="none" xmlns="http://www.w3.org/2000/svg">
<path d="M4.66667 11.5C4.84348 11.5 5.01305 11.4298 5.13807 11.3047C5.2631 11.1797 5.33333 11.0101 5.33333 10.8333V6.83334C5.33333 6.65652 5.2631 6.48696 5.13807 6.36193C5.01305 6.23691 4.84348 6.16667 4.66667 6.16667C4.48986 6.16667 4.32029 6.23691 4.19526 6.36193C4.07024 6.48696 4 6.65652 4 6.83334V10.8333C4 11.0101 4.07024 11.1797 4.19526 11.3047C4.32029 11.4298 4.48986 11.5 4.66667 11.5ZM11.3333 3.5H8.66667V2.83334C8.66667 2.3029 8.45595 1.7942 8.08088 1.41912C7.70581 1.04405 7.1971 0.833336 6.66667 0.833336H5.33333C4.8029 0.833336 4.29419 1.04405 3.91912 1.41912C3.54405 1.7942 3.33333 2.3029 3.33333 2.83334V3.5H0.666667C0.489856 3.5 0.320286 3.57024 0.195262 3.69526C0.0702379 3.82029 0 3.98986 0 4.16667C0 4.34348 0.0702379 4.51305 0.195262 4.63807C0.320286 4.7631 0.489856 4.83334 0.666667 4.83334H1.33333V12.1667C1.33333 12.6971 1.54405 13.2058 1.91912 13.5809C2.29419 13.956 2.8029 14.1667 3.33333 14.1667H8.66667C9.1971 14.1667 9.70581 13.956 10.0809 13.5809C10.456 13.2058 10.6667 12.6971 10.6667 12.1667V4.83334H11.3333C11.5101 4.83334 11.6797 4.7631 11.8047 4.63807C11.9298 4.51305 12 4.34348 12 4.16667C12 3.98986 11.9298 3.82029 11.8047 3.69526C11.6797 3.57024 11.5101 3.5 11.3333 3.5ZM4.66667 2.83334C4.66667 2.65652 4.7369 2.48696 4.86193 2.36193C4.98695 2.23691 5.15652 2.16667 5.33333 2.16667H6.66667C6.84348 2.16667 7.01305 2.23691 7.13807 2.36193C7.2631 2.48696 7.33333 2.65652 7.33333 2.83334V3.5H4.66667V2.83334ZM9.33333 12.1667C9.33333 12.3435 9.2631 12.513 9.13807 12.6381C9.01305 12.7631 8.84348 12.8333 8.66667 12.8333H3.33333C3.15652 12.8333 2.98695 12.7631 2.86193 12.6381C2.7369 12.513 2.66667 12.3435 2.66667 12.1667V4.83334H9.33333V12.1667ZM7.33333 11.5C7.51014 11.5 7.67971 11.4298 7.80474 11.3047C7.92976 11.1797 8 11.0101 8 10.8333V6.83334C8 6.65652 7.92976 6.48696 7.80474 6.36193C7.67971 6.23691 7.51014 6.16667 7.33333 6.16667C7.15652 6.16667 6.98695 6.23691 6.86193 6.36193C6.73691 6.48696 6.66667 6.65652 6.66667 6.83334V10.8333C6.66667 11.0101 6.73691 11.1797 6.86193 11.3047C6.98695 11.4298 7.15652 11.5 7.33333 11.5Z" fill="#EB5757"/>
</svg>
