<svg width="16" height="15" viewBox="0 0 16 15" fill="none" xmlns="http://www.w3.org/2000/svg">
<path d="M11.75 3.75H4.25C4.05109 3.75 3.86032 3.82902 3.71967 3.96967C3.57902 4.11032 3.5 4.30109 3.5 4.5C3.5 4.69891 3.57902 4.88968 3.71967 5.03033C3.86032 5.17098 4.05109 5.25 4.25 5.25H11.75C11.9489 5.25 12.1397 5.17098 12.2803 5.03033C12.421 4.88968 12.5 4.69891 12.5 4.5C12.5 4.30109 12.421 4.11032 12.2803 3.96967C12.1397 3.82902 11.9489 3.75 11.75 3.75ZM11.75 6.75H4.25C4.05109 6.75 3.86032 6.82902 3.71967 6.96967C3.57902 7.11032 3.5 7.30109 3.5 7.5C3.5 7.69891 3.57902 7.88968 3.71967 8.03033C3.86032 8.17098 4.05109 8.25 4.25 8.25H11.75C11.9489 8.25 12.1397 8.17098 12.2803 8.03033C12.421 7.88968 12.5 7.69891 12.5 7.5C12.5 7.30109 12.421 7.11032 12.2803 6.96967C12.1397 6.82902 11.9489 6.75 11.75 6.75ZM13.25 0H2.75C2.15326 0 1.58097 0.237053 1.15901 0.65901C0.737053 1.08097 0.5 1.65326 0.5 2.25V9.75C0.5 10.3467 0.737053 10.919 1.15901 11.341C1.58097 11.7629 2.15326 12 2.75 12H11.4425L14.2175 14.7825C14.2876 14.852 14.3707 14.907 14.4621 14.9443C14.5534 14.9816 14.6513 15.0006 14.75 15C14.8484 15.0025 14.946 14.982 15.035 14.94C15.172 14.8837 15.2892 14.7882 15.372 14.6654C15.4547 14.5426 15.4993 14.3981 15.5 14.25V2.25C15.5 1.65326 15.2629 1.08097 14.841 0.65901C14.419 0.237053 13.8467 0 13.25 0ZM14 12.4425L12.2825 10.7175C12.2124 10.648 12.1293 10.593 12.0379 10.5557C11.9466 10.5183 11.8487 10.4994 11.75 10.5H2.75C2.55109 10.5 2.36032 10.421 2.21967 10.2803C2.07902 10.1397 2 9.94891 2 9.75V2.25C2 2.05109 2.07902 1.86032 2.21967 1.71967C2.36032 1.57902 2.55109 1.5 2.75 1.5H13.25C13.4489 1.5 13.6397 1.57902 13.7803 1.71967C13.921 1.86032 14 2.05109 14 2.25V12.4425Z" fill="#222222"/>
</svg>
