<svg width="16" height="16" viewBox="0 0 16 16" fill="none" xmlns="http://www.w3.org/2000/svg">
<path d="M7.80005 0.5C3.67505 0.5 0.300049 3.875 0.300049 8C0.300049 9.725 0.900049 11.375 2.02505 12.725L0.525049 14.225C0.225049 14.525 0.225049 14.975 0.525049 15.275C0.675049 15.425 0.825049 15.5 1.05005 15.5H7.80005C11.925 15.5 15.3 12.125 15.3 8C15.3 3.875 11.925 0.5 7.80005 0.5ZM4.80005 8.75C4.35005 8.75 4.05005 8.45 4.05005 8C4.05005 7.55 4.35005 7.25 4.80005 7.25C5.25005 7.25 5.55005 7.55 5.55005 8C5.55005 8.45 5.25005 8.75 4.80005 8.75ZM7.80005 8.75C7.35005 8.75 7.05005 8.45 7.05005 8C7.05005 7.55 7.35005 7.25 7.80005 7.25C8.25005 7.25 8.55005 7.55 8.55005 8C8.55005 8.45 8.25005 8.75 7.80005 8.75ZM10.8 8.75C10.35 8.75 10.05 8.45 10.05 8C10.05 7.55 10.35 7.25 10.8 7.25C11.25 7.25 11.55 7.55 11.55 8C11.55 8.45 11.25 8.75 10.8 8.75Z" fill="white"/>
</svg>
