<svg width="14" height="14" viewBox="0 0 14 14" fill="none" xmlns="http://www.w3.org/2000/svg">
<path d="M9.86023 4.80671L11.3936 6.33337L5.00023 6.33337C4.82342 6.33337 4.65385 6.40361 4.52883 6.52864C4.4038 6.65366 4.33357 6.82323 4.33357 7.00004C4.33357 7.17685 4.4038 7.34642 4.52883 7.47144C4.65385 7.59647 4.82342 7.66671 5.00023 7.66671L11.3936 7.66671L9.86023 9.19337C9.79775 9.25535 9.74815 9.32908 9.7143 9.41032C9.68046 9.49156 9.66303 9.5787 9.66303 9.66671C9.66303 9.75471 9.68046 9.84185 9.7143 9.92309C9.74815 10.0043 9.79775 10.0781 9.86023 10.14C9.92221 10.2025 9.99594 10.2521 10.0772 10.286C10.1584 10.3198 10.2456 10.3372 10.3336 10.3372C10.4216 10.3372 10.5087 10.3198 10.5899 10.286C10.6712 10.2521 10.7449 10.2025 10.8069 10.14L13.4736 7.47337C13.5343 7.40997 13.5818 7.33521 13.6136 7.25337C13.6802 7.09107 13.6802 6.90901 13.6136 6.74671C13.5818 6.66487 13.5343 6.59011 13.4736 6.52671L10.8069 3.86004C10.7447 3.79788 10.6709 3.74857 10.5897 3.71493C10.5085 3.68129 10.4215 3.66398 10.3336 3.66398C10.2457 3.66398 10.1586 3.68129 10.0774 3.71493C9.99618 3.74857 9.92239 3.79788 9.86023 3.86004C9.79807 3.9222 9.74877 3.99599 9.71513 4.07721C9.68149 4.15842 9.66417 4.24547 9.66417 4.33337C9.66417 4.42128 9.68149 4.50833 9.71513 4.58954C9.74877 4.67075 9.79807 4.74455 9.86023 4.80671ZM5.6669 13C5.6669 12.8232 5.59666 12.6537 5.47164 12.5286C5.34661 12.4036 5.17704 12.3334 5.00023 12.3334L2.33357 12.3334C2.15675 12.3334 1.98718 12.2631 1.86216 12.1381C1.73714 12.0131 1.6669 11.8435 1.6669 11.6667L1.6669 2.33337C1.6669 2.15656 1.73714 1.98699 1.86216 1.86197C1.98718 1.73694 2.15675 1.66671 2.33357 1.66671L5.00023 1.66671C5.17704 1.66671 5.34661 1.59647 5.47164 1.47144C5.59666 1.34642 5.6669 1.17685 5.6669 1.00004C5.6669 0.823229 5.59666 0.65366 5.47164 0.528636C5.34661 0.403612 5.17704 0.333374 5.00023 0.333374L2.33357 0.333374C1.80313 0.333374 1.29442 0.544087 0.919352 0.91916C0.544279 1.29423 0.333566 1.80294 0.333566 2.33337L0.333565 11.6667C0.333565 12.1971 0.544279 12.7058 0.919351 13.0809C1.29442 13.456 1.80313 13.6667 2.33357 13.6667L5.00023 13.6667C5.17704 13.6667 5.34661 13.5965 5.47164 13.4714C5.59666 13.3464 5.6669 13.1769 5.6669 13Z" fill="#EB5757"/>
</svg>
