<svg width="16" height="15" viewBox="0 0 16 15" fill="none" xmlns="http://www.w3.org/2000/svg">
<path d="M10.7824 8.03272C11.5177 7.45421 12.0544 6.66091 12.3178 5.76317C12.5812 4.86544 12.5583 3.90791 12.2522 3.02382C11.9461 2.13972 11.3721 1.37301 10.6099 0.830357C9.84779 0.287705 8.93546 -0.00390625 7.99988 -0.00390625C7.06429 -0.00390625 6.15196 0.287705 5.38982 0.830357C4.62768 1.37301 4.05363 2.13972 3.74753 3.02382C3.44144 3.90791 3.41851 4.86544 3.68195 5.76317C3.94538 6.66091 4.48208 7.45421 5.21738 8.03272C3.95743 8.5375 2.85809 9.37473 2.03654 10.4552C1.215 11.5356 0.702048 12.8187 0.552375 14.1677C0.541541 14.2662 0.550213 14.3659 0.577895 14.461C0.605576 14.5561 0.651726 14.6449 0.713709 14.7222C0.83889 14.8783 1.02096 14.9783 1.21988 15.0002C1.41879 15.0221 1.61825 14.9641 1.77437 14.8389C1.93049 14.7137 2.0305 14.5316 2.05238 14.3327C2.21706 12.8666 2.91614 11.5126 4.01604 10.5293C5.11594 9.54605 6.53955 9.00249 8.01488 9.00249C9.4902 9.00249 10.9138 9.54605 12.0137 10.5293C13.1136 11.5126 13.8127 12.8666 13.9774 14.3327C13.9978 14.517 14.0857 14.6872 14.2242 14.8105C14.3627 14.9337 14.542 15.0013 14.7274 15.0002H14.8099C15.0065 14.9776 15.1862 14.8782 15.3098 14.7237C15.4334 14.5691 15.491 14.372 15.4699 14.1752C15.3195 12.8224 14.8038 11.536 13.978 10.4539C13.1522 9.37178 12.0476 8.53483 10.7824 8.03272ZM7.99988 7.50022C7.40653 7.50022 6.82651 7.32427 6.33317 6.99462C5.83982 6.66498 5.4553 6.19644 5.22824 5.64827C5.00117 5.10009 4.94176 4.49689 5.05752 3.91494C5.17327 3.333 5.459 2.79845 5.87855 2.3789C6.29811 1.95934 6.83266 1.67362 7.41461 1.55786C7.99655 1.4421 8.59975 1.50151 9.14793 1.72858C9.69611 1.95564 10.1646 2.34016 10.4943 2.8335C10.8239 3.32685 10.9999 3.90687 10.9999 4.50022C10.9999 5.29587 10.6838 6.05893 10.1212 6.62154C9.55859 7.18415 8.79553 7.50022 7.99988 7.50022Z" fill="#222222"/>
</svg>
