<svg width="26" height="26" viewBox="0 0 26 26" fill="none" xmlns="http://www.w3.org/2000/svg">
<g clip-path="url(#clip0_29_181)">
<path d="M13 0.5C6.82812 0.5 0.5 1.82812 0.5 11.4375C0.5 16.5938 2.29688 19.7969 5.96875 21.2812V24.1719C5.96875 24.7188 6.28125 25.1875 6.75 25.4219C6.90625 25.5 7.14062 25.5 7.29688 25.5C7.60938 25.5 8 25.3438 8.23437 25.1094L11.0469 22.2969C11.6719 22.2969 12.2969 22.375 13 22.375C19.1719 22.375 25.5 21.0469 25.5 11.4375C25.5 1.82812 19.1719 0.5 13 0.5ZM12.6094 8.46875C14.0156 8.46875 15.1875 9.64062 15.1875 11.0469C15.1875 11.5156 14.875 11.8281 14.4062 11.8281C13.9375 11.8281 13.625 11.5156 13.625 11.0469C13.625 10.5 13.1562 10.0312 12.6094 10.0312C12.1406 10.0312 11.8281 9.71875 11.8281 9.25C11.8281 8.78125 12.1406 8.46875 12.6094 8.46875ZM11.8281 6.82813C11.8281 6.35938 12.1406 6.04688 12.6094 6.04688C15.3438 6.04688 17.6094 8.3125 17.6094 11.0469C17.6094 11.5156 17.2969 11.8281 16.8281 11.8281C16.3594 11.8281 16.0469 11.5156 16.0469 11.0469C16.0469 9.17188 14.4844 7.60938 12.6094 7.60938C12.1406 7.60938 11.8281 7.21875 11.8281 6.82813ZM18.2344 16.5156C17.9219 17.4531 16.75 18.2344 15.7344 18.3906C15.5 18.4688 15.2656 18.4688 14.9531 18.4688C14.3281 18.4688 13.3906 18.3125 11.75 17.6094C9.875 16.8281 8 15.1875 6.51562 13.0781V13C6.04688 12.2969 5.1875 10.9688 5.1875 9.5625C5.1875 7.84375 6.04688 6.98438 6.35938 6.59375C6.82812 6.20312 7.375 5.96875 8 5.96875C8.15625 5.96875 8.23438 5.96875 8.39063 5.96875C8.9375 5.96875 9.32812 6.125 9.71875 6.90625L10.0312 7.53125C10.2656 8.15625 10.5781 8.85938 10.6562 8.9375C10.8906 9.40625 10.8906 9.79688 10.6562 10.1875C10.5781 10.4219 10.4219 10.5781 10.2656 10.7344C10.1875 10.8906 10.1094 10.9688 10.0312 10.9688C9.95312 11.0469 9.95312 11.0469 9.875 11.125C10.1094 11.5156 10.5781 12.2188 11.2031 12.7656C12.1406 13.625 12.8437 13.8594 13.2344 14.0156C13.3906 13.8594 13.5469 13.5469 13.7812 13.3125L13.8594 13.1563C14.25 12.6094 14.875 12.4531 15.5 12.6875C15.8125 12.8438 17.5312 13.625 17.5312 13.625L17.6875 13.7031C17.9219 13.8594 18.2344 13.9375 18.3906 14.25C18.625 14.9531 18.3906 15.9688 18.2344 16.5156ZM19.25 11.8281C18.7812 11.8281 18.4688 11.5156 18.4688 11.0469C18.4688 7.84375 15.8125 5.1875 12.6094 5.1875C12.1406 5.1875 11.8281 4.875 11.8281 4.40625C11.8281 3.9375 12.1406 3.625 12.6094 3.625C16.6719 3.625 20.0312 6.98438 20.0312 11.0469C20.0312 11.5156 19.7188 11.8281 19.25 11.8281Z" fill="white"/>
</g>
<defs>
<clipPath id="clip0_29_181">
<rect width="25" height="25" fill="white" transform="translate(0.5 0.5)"/>
</clipPath>
</defs>
</svg>
