<svg width="26" height="26" viewBox="0 0 26 26" fill="none" xmlns="http://www.w3.org/2000/svg">
<path d="M15.393 12.8048C15.0023 12.6579 15.0023 12.097 14.9781 11.7063C14.8805 10.3149 15.3687 8.19072 14.7828 7.2876C14.368 6.7501 12.3656 6.79932 11.1453 6.87275C10.8031 6.92197 10.3883 6.99463 10.0953 7.1415C9.80233 7.28838 9.50937 7.53213 9.50937 7.75166C9.50937 8.06885 10.2422 8.02041 10.5101 8.43525C10.8031 8.8751 10.8031 9.82666 10.8031 10.6079C10.8031 11.511 10.6562 12.7079 10.2906 12.7563C9.7289 12.7806 9.41171 12.2188 9.11874 11.804C8.5328 10.9985 7.94687 9.99697 7.50702 9.02041C7.28749 8.50791 7.16484 7.94619 6.84765 7.72666C6.35937 7.38447 5.48046 7.36025 4.62577 7.38447C3.84452 7.40869 2.72109 7.31104 2.50155 7.7751C2.33046 8.2876 2.69687 8.77588 2.89218 9.1915C3.89296 11.3642 4.96718 13.2688 6.28593 15.0751C7.50702 16.7595 8.6539 18.1024 10.9 18.8103C11.5351 19.0056 14.318 19.5673 14.8797 18.8103C15.075 18.5173 15.0266 17.8579 15.1242 17.3696C15.2219 16.8813 15.3437 16.3931 15.8078 16.3688C16.1984 16.3446 16.418 16.686 16.6625 16.9306C16.9312 17.1993 17.1508 17.4188 17.3461 17.6634C17.8101 18.1274 18.2984 18.7618 18.8844 19.0063C19.6898 19.3485 20.9351 19.2509 22.107 19.2017C23.0594 19.1774 23.743 18.9821 23.8164 18.4204C23.8656 17.9806 23.3766 17.3462 23.0836 16.9798C22.3508 16.0767 22.0094 15.8079 21.1789 14.9774C20.8125 14.611 20.3484 14.2204 20.3484 13.7813C20.3242 13.5126 20.5437 13.2688 20.7391 13.0001C21.5937 11.7306 22.4484 10.8274 23.2297 9.50869C23.4492 9.11807 23.9625 8.21494 23.7672 7.7751C23.5476 7.28682 22.3266 7.43291 21.5695 7.43291C20.593 7.43291 19.3234 7.35947 19.0789 7.55478C18.6148 7.87197 18.4195 8.38525 18.2 8.87354C17.7117 9.99697 17.0523 11.1438 16.3687 11.9985C16.1242 12.2915 15.6609 12.9017 15.3922 12.804L15.393 12.8048Z" fill="white"/>
</svg>
